# xmcd
# 
# Track frame offsets:
#     150
#     20280
#     41217
#     59422
#     89300
#     109510
#     129210
#     154165
#     173087
#     192685
#     212210
#     237510
#     256245
#     277842
#     333425
# 
# Disc length: 4669
# 
# Revision: 1
# Processed by: cddbd v1.5.2PL0 Copyright (c) Steve Scherf et al.
# Submitted via: fre:ac v1.0.31
# 
DISCID=d1123b0f
DTITLE=John Martyn - The Hidden Years
DYEAR=0
DGENRE=
TTITLE0=Live On Love
TTITLE1=Hole In The Rain
TTITLE2=The River
TTITLE3=Jack The Lad
TTITLE4=Look At The Girl
TTITLE5=Same Difference
TTITLE6=Send Me One Line
TTITLE7=The Cure
TTITLE8=Income Town
TTITLE9=The Apprentice
TTITLE10=Call Me
TTITLE11=Deny This Love
TTITLE12=Hold Me
TTITLE13=Cooltide
TTITLE14=Patterns In The Rain
EXTD=one of the greatest guitarists ever
EXTT0=
EXTT1=
EXTT2=
EXTT3=
EXTT4=
EXTT5=
EXTT6=
EXTT7=
EXTT8=
EXTT9=
EXTT10=
EXTT11=
EXTT12=
EXTT13=
EXTT14=
PLAYORDER=
